<svg height="512pt" viewBox="0 -35 512 512" width="512pt" xmlns="http://www.w3.org/2000/svg"><path d="m504.503906 27.34375v398.144531c0 5.007813-4.0625 9.066407-9.070312 9.066407h-478.867188c-5.007812 0-9.070312-4.058594-9.070312-9.066407v-398.15625c0-10.953125 8.882812-19.835937 19.835937-19.835937h457.335938c10.949219 0 19.835937 8.886718 19.835937 19.847656zm0 0" fill="#fff"/><path d="m504.503906 27.34375v70.933594h-497.003906v-70.933594c0-10.960938 8.882812-19.847656 19.835938-19.847656h457.332031c10.949219 0 19.835937 8.886718 19.835937 19.847656zm0 0" fill="#e4eaf8"/><path d="m504.5 82.410156h-497v-55.070312c0-10.957032 8.882812-19.839844 19.839844-19.839844h457.320312c10.957032 0 19.839844 8.882812 19.839844 19.839844zm0 0" fill="#ffc850"/><path d="m484.660156 0h-56.351562c-4.140625 0-7.5 3.359375-7.5 7.5s3.359375 7.5 7.5 7.5h56.351562c6.804688 0 12.339844 5.535156 12.339844 12.339844v398.148437c0 .863281-.703125 1.566407-1.566406 1.566407h-380.460938c-4.140625 0-7.5 3.359374-7.5 7.5 0 4.140624 3.359375 7.5 7.5 7.5h380.460938c9.132812 0 16.566406-7.433594 16.566406-16.566407v-398.148437c0-15.074219-12.265625-27.339844-27.339844-27.339844zm0 0" fill="#474d54"/><path d="m84.355469 427.054688h-67.789063c-.863281 0-1.566406-.703126-1.566406-1.566407v-398.148437c0-6.804688 5.535156-12.339844 12.339844-12.339844h370.351562c4.144532 0 7.5-3.355469 7.5-7.5 0-4.140625-3.355468-7.5-7.5-7.5h-370.351562c-15.074219 0-27.339844 12.265625-27.339844 27.339844v398.148437c0 9.136719 7.433594 16.566407 16.566406 16.566407h67.789063c4.144531 0 7.5-3.355469 7.5-7.5 0-4.140626-3.355469-7.5-7.5-7.5zm0 0" fill="#474d54"/><path d="m74.160156 38.839844c-4.140625 0-7.5 3.359375-7.5 7.5 0 4.144531 3.359375 7.5 7.5 7.5h267.53125c4.144532 0 7.503906-3.355469 7.503906-7.5 0-4.140625-3.359374-7.5-7.503906-7.5zm0 0" fill="#fff"/><path d="m370.464844 44.304688v1.304687c0 4.140625 3.359375 7.5 7.5 7.5s7.5-3.359375 7.5-7.5v-1.304687c0-4.140626-3.359375-7.5-7.5-7.5s-7.5 3.359374-7.5 7.5zm0 0" fill="#ff8031"/><path d="m400.402344 44.304688v1.304687c0 4.140625 3.359375 7.5 7.5 7.5s7.5-3.359375 7.5-7.5v-1.304687c0-4.140626-3.359375-7.5-7.5-7.5s-7.5 3.359374-7.5 7.5zm0 0" fill="#ff8031"/><path d="m445.339844 45.609375v-1.304687c0-4.140626-3.359375-7.5-7.5-7.5s-7.5 3.359374-7.5 7.5v1.304687c0 4.140625 3.359375 7.5 7.5 7.5s7.5-3.359375 7.5-7.5zm0 0" fill="#ff8031"/><path d="m424.15625 332.800781h-60.667969c-4.140625 0-7.5 3.355469-7.5 7.5 0 4.140625 3.359375 7.5 7.5 7.5h60.667969c4.144531 0 7.5-3.359375 7.5-7.5 0-4.144531-3.355469-7.5-7.5-7.5zm0 0" fill="#abffdb"/><path d="m424.15625 356.765625h-21.546875c-4.140625 0-7.5 3.355469-7.5 7.5 0 4.140625 3.359375 7.5 7.5 7.5h21.546875c4.144531 0 7.5-3.359375 7.5-7.5 0-4.144531-3.355469-7.5-7.5-7.5zm0 0" fill="#abffdb"/><g fill="#c3c8d1"><path d="m155.769531 300.746094c1.917969 0 3.839844-.730469 5.304688-2.195313 2.925781-2.929687 2.925781-7.679687 0-10.605469l-41.078125-41.078124 41.078125-41.078126c2.925781-2.929687 2.925781-7.675781 0-10.605468-2.929688-2.929688-7.679688-2.929688-10.609375 0l-46.378906 46.378906c-1.40625 1.40625-2.195313 3.316406-2.195313 5.304688 0 1.988281.789063 3.898437 2.195313 5.304687l46.378906 46.378906c1.464844 1.464844 3.386718 2.195313 5.304687 2.195313zm0 0"/><path d="m361.535156 195.183594c-2.929687-2.929688-7.679687-2.929688-10.609375 0-2.925781 2.929687-2.925781 7.679687 0 10.605468l41.078125 41.078126-41.078125 41.078124c-2.925781 2.929688-2.925781 7.675782 0 10.605469 1.464844 1.464844 3.386719 2.195313 5.304688 2.195313s3.839843-.730469 5.304687-2.195313l46.378906-46.378906c1.40625-1.40625 2.195313-3.316406 2.195313-5.304687 0-1.988282-.789063-3.898438-2.195313-5.304688zm0 0"/><path d="m244.898438 200.035156c-3.652344-1.953125-8.195313-.570312-10.148438 3.082032l-46.253906 86.597656c-1.949219 3.652344-.570313 8.199218 3.085937 10.148437 1.125.601563 2.332031.886719 3.527344.886719 2.675781 0 5.269531-1.4375 6.621094-3.96875l46.25-86.597656c1.953125-3.652344.574219-8.199219-3.082031-10.148438zm0 0"/><path d="m253.050781 299.601562c4.144531 0 7.5-3.359374 7.5-7.5v-1.054687c0-4.140625-3.355469-7.5-7.5-7.5-4.140625 0-7.5 3.359375-7.5 7.5v1.054687c0 4.140626 3.359375 7.5 7.5 7.5zm0 0"/><path d="m279.523438 291.050781v1.050781c0 4.140626 3.359374 7.5 7.5 7.5 4.144531 0 7.5-3.359374 7.5-7.5v-1.050781c0-4.144531-3.355469-7.503906-7.5-7.503906-4.140626 0-7.5 3.359375-7.5 7.503906zm0 0"/><path d="m313.5 291.050781v1.050781c0 4.140626 3.355469 7.5 7.5 7.5 4.140625 0 7.5-3.359374 7.5-7.5v-1.050781c0-4.144531-3.359375-7.503906-7.5-7.503906-4.144531 0-7.5 3.359375-7.5 7.503906zm0 0"/></g></svg>